<svg width="129" height="177" viewBox="0 0 129 177" fill="none" xmlns="http://www.w3.org/2000/svg">
<rect opacity="0.9" y="168.366" width="8.63415" height="8.63415" rx="4.31707" fill="black"/>
<rect opacity="0.9" x="39.9331" y="168.366" width="8.63415" height="8.63415" rx="4.31707" fill="black"/>
<rect opacity="0.9" x="79.8658" y="168.366" width="8.63415" height="8.63415" rx="4.31707" fill="black"/>
<rect opacity="0.9" x="119.799" y="168.366" width="8.63415" height="8.63415" rx="4.31707" fill="black"/>
<rect opacity="0.9" y="126.274" width="8.63415" height="8.63415" rx="4.31707" fill="black"/>
<rect opacity="0.9" x="39.9331" y="126.274" width="8.63415" height="8.63415" rx="4.31707" fill="black"/>
<rect opacity="0.9" x="79.8658" y="126.274" width="8.63415" height="8.63415" rx="4.31707" fill="black"/>
<rect opacity="0.9" x="119.799" y="126.274" width="8.63415" height="8.63415" rx="4.31707" fill="black"/>
<rect opacity="0.9" y="84.1831" width="8.63415" height="8.63415" rx="4.31707" fill="black"/>
<rect opacity="0.9" x="39.9331" y="84.1831" width="8.63415" height="8.63415" rx="4.31707" fill="black"/>
<rect opacity="0.9" x="79.8658" y="84.1831" width="8.63415" height="8.63415" rx="4.31707" fill="black"/>
<rect opacity="0.9" x="119.799" y="84.1831" width="8.63415" height="8.63415" rx="4.31707" fill="black"/>
<rect opacity="0.9" y="42.0913" width="8.63415" height="8.63415" rx="4.31707" fill="black"/>
<rect opacity="0.9" x="39.9331" y="42.0913" width="8.63415" height="8.63415" rx="4.31707" fill="black"/>
<rect opacity="0.9" x="79.8658" y="42.0913" width="8.63415" height="8.63415" rx="4.31707" fill="black"/>
<rect opacity="0.9" x="119.799" y="42.0913" width="8.63415" height="8.63415" rx="4.31707" fill="black"/>
<rect opacity="0.9" width="8.63415" height="8.63415" rx="4.31707" fill="black"/>
<rect opacity="0.9" x="39.9331" width="8.63415" height="8.63415" rx="4.31707" fill="black"/>
<rect opacity="0.9" x="79.8658" width="8.63415" height="8.63415" rx="4.31707" fill="black"/>
</svg>
