<svg width="16" height="16" viewBox="0 0 16 16" fill="none" xmlns="http://www.w3.org/2000/svg"><g opacity=".3" fill-rule="evenodd" clip-rule="evenodd" fill="#000"><path d="M8 0a8 8 0 1 0 0 16A8 8 0 0 0 8 0zm3.446 6.223h-2.26v-.647h2.26v.647zm-.2.544a2.244 2.244 0 0 0-.916-.18c-.572 0-1.036.178-1.395.533-.357.356-.537.867-.537 1.534 0 .71.198 1.224.596 1.54a2.14 2.14 0 0 0 1.373.473c.629 0 1.118-.187 1.467-.561.224-.236.35-.468.378-.696h-1.041a.838.838 0 0 1-.21.265c-.145.118-.334.176-.566.176-.22 0-.407-.048-.562-.145-.257-.154-.391-.425-.409-.81h2.842a4.873 4.873 0 0 0-.034-.765 1.857 1.857 0 0 0-.312-.795 1.57 1.57 0 0 0-.673-.57zM6.283 5.333c.643.01 1.098.194 1.366.555.161.221.242.485.242.794 0 .317-.08.573-.244.766a1.264 1.264 0 0 1-.402.296c.269.097.472.25.61.46.136.208.205.462.205.761 0 .309-.079.585-.236.83a1.446 1.446 0 0 1-.968.67c-.23.048-.478.07-.745.07H3.733V5.334h2.549z"/><path d="M4.785 6.237h1.147c.253 0 .46.027.624.08.189.079.283.239.283.482 0 .218-.072.37-.214.456-.144.086-.33.13-.558.13H4.785V6.236zm4.937 1.399c.144-.147.347-.22.608-.22.241 0 .442.069.606.207.161.14.253.341.271.608H9.45a1.04 1.04 0 0 1 .272-.595zm-3.639.61H4.785v1.387h1.28c.229 0 .407-.031.534-.092.232-.114.347-.33.347-.65 0-.27-.111-.456-.336-.558-.125-.056-.301-.086-.527-.088z"/></g></svg>