<svg width="102" height="43" viewBox="0 0 102 43" fill="none" xmlns="http://www.w3.org/2000/svg"><path d="M11.136 10.432c-1.077 1.248-2.544 1.872-4.4 1.872-1.76 0-3.216-.555-4.368-1.664C1.216 9.52.64 8.08.64 6.32c0-1.781.581-3.216 1.744-4.304C3.557.917 5.024.368 6.784.368c.821 0 1.616.15 2.384.448.779.288 1.397.693 1.856 1.216L9.168 3.888a2.235 2.235 0 0 0-.992-.768 3.137 3.137 0 0 0-1.296-.272c-.95 0-1.733.33-2.352.992-.608.65-.912 1.477-.912 2.48 0 1.024.299 1.861.896 2.512.597.64 1.37.96 2.32.96 1.056 0 1.856-.384 2.4-1.152l1.904 1.792zM19.445 12h-7.136V.672h2.752v8.944h4.384V12zm12.61-5.712c0 1.781-.582 3.232-1.745 4.352-1.162 1.11-2.64 1.664-4.432 1.664-1.781 0-3.253-.555-4.416-1.664-1.163-1.12-1.744-2.57-1.744-4.352 0-1.792.576-3.227 1.728-4.304C22.61.907 24.086.368 25.878.368c1.803 0 3.28.539 4.432 1.616 1.163 1.077 1.744 2.512 1.744 4.304zm-2.929 0c0-1.003-.304-1.83-.912-2.48-.608-.65-1.386-.976-2.336-.976s-1.728.325-2.336.976c-.597.65-.896 1.477-.896 2.48 0 1.024.299 1.867.896 2.528.608.661 1.387.992 2.336.992.95 0 1.728-.33 2.336-.992.608-.661.912-1.504.912-2.528zM43.652.672L39.284 12h-2.736L32.26.672h3.072l2.624 8.032h.064L40.628.672h3.024zM52.478 12h-7.904V.672h7.616v2.32h-4.976V5.12h4.704v2.192h-4.704v2.352h5.264V12zm11.079 0h-3.2l-2.448-4.496h-.928V12h-2.688V.672h4.32c.576 0 1.11.059 1.6.176.49.117.95.304 1.376.56.427.256.757.613.992 1.072.245.459.368.997.368 1.616 0 .747-.208 1.387-.624 1.92-.416.533-.992.912-1.728 1.136L63.557 12zm-3.312-7.856c0-.843-.608-1.264-1.824-1.264h-1.456v2.64h1.296c1.323 0 1.984-.459 1.984-1.376zM2.208 18.504l4.944 7.236h.024v-7.236h.864V27H6.96l-4.944-7.308h-.024V27h-.864v-8.496h1.08zm8.948 0V27h-.864v-8.496h.864zm3.117 0v3.816h.012l4.044-3.816h1.236l-4.284 3.852L19.805 27h-1.272l-4.248-4.524h-.012V27h-.864v-8.496h.864zm13.518 1.056c.84.84 1.26 1.904 1.26 3.192 0 1.288-.42 2.356-1.26 3.204-.84.84-1.896 1.26-3.168 1.26-1.272 0-2.328-.42-3.168-1.26-.84-.848-1.26-1.916-1.26-3.204 0-1.288.42-2.352 1.26-3.192.84-.848 1.896-1.272 3.168-1.272 1.272 0 2.328.424 3.168 1.272zm-.624 5.82c.648-.72.972-1.596.972-2.628s-.324-1.908-.972-2.628c-.64-.72-1.488-1.08-2.544-1.08s-1.908.36-2.556 1.08c-.64.72-.96 1.596-.96 2.628s.32 1.908.96 2.628c.648.712 1.5 1.068 2.556 1.068s1.904-.356 2.544-1.068zm4.544-6.876v7.728h3.96V27h-4.824v-8.496h.864zm6.117 6.264L36.904 27h-.948l3.672-8.496h.84L44.116 27h-.96l-.936-2.232h-4.392zm2.196-5.304l-1.872 4.512h3.744l-1.872-4.512zm8.995-.96v3.816h.012l4.044-3.816h1.236l-4.284 3.852L54.551 27H53.28l-4.248-4.524h-.012V27h-.864v-8.496h.864zM55.691 27v-8.496h.863v3.684h4.633v-3.684h.864V27h-.864v-4.02h-4.633V27h-.864zm9.477-8.496v7.728h3.96V27h-4.824v-8.496h.864zM74.556 27a3.608 3.608 0 0 1-1.296.216c-.488 0-.924-.072-1.308-.216a2.814 2.814 0 0 1-.912-.564 2.825 2.825 0 0 1-.576-.804 3.96 3.96 0 0 1-.3-.9 4.83 4.83 0 0 1-.084-.9v-5.328h.864v5.232c0 .768.184 1.412.552 1.932.376.52.964.78 1.764.78s1.384-.26 1.752-.78c.376-.52.564-1.164.564-1.932v-5.232h.864v5.328c0 .304-.028.604-.084.9a3.66 3.66 0 0 1-.312.9c-.144.312-.332.58-.564.804-.232.224-.54.412-.924.564zm8.892-7.68l-.684.552c-.4-.568-.984-.852-1.752-.852-.472 0-.892.14-1.26.42-.368.28-.552.672-.552 1.176 0 .208.035.396.108.564.08.168.163.3.251.396.088.096.233.196.433.3.207.104.367.176.48.216l.576.192c.272.088.448.148.528.18.088.024.248.084.48.18.24.096.404.18.492.252.096.064.224.164.383.3.169.136.285.272.349.408.072.136.135.304.192.504.064.2.096.42.096.66 0 .792-.276 1.4-.828 1.824-.552.416-1.2.624-1.944.624a3.672 3.672 0 0 1-1.525-.324 2.873 2.873 0 0 1-1.151-.936l.743-.552c.2.32.469.58.805.78.335.192.715.288 1.14.288.487 0 .923-.144 1.307-.432.385-.296.577-.7.577-1.212 0-.232-.044-.436-.132-.612a1.564 1.564 0 0 0-.276-.444c-.105-.112-.269-.22-.493-.324a3.932 3.932 0 0 0-.54-.24 17.286 17.286 0 0 0-.636-.204 7.63 7.63 0 0 1-.852-.312 4.128 4.128 0 0 1-.696-.42c-.24-.176-.423-.4-.551-.672a2.45 2.45 0 0 1-.18-.972c0-.52.14-.96.42-1.32a2.383 2.383 0 0 1 1.02-.78c.4-.16.824-.24 1.272-.24.535 0 1.016.1 1.44.3.424.192.743.436.96.732zm9.113.24c.84.84 1.26 1.904 1.26 3.192 0 1.288-.42 2.356-1.26 3.204-.84.84-1.896 1.26-3.168 1.26-1.272 0-2.328-.42-3.168-1.26-.84-.848-1.26-1.916-1.26-3.204 0-1.288.42-2.352 1.26-3.192.84-.848 1.896-1.272 3.168-1.272 1.272 0 2.328.424 3.168 1.272zm-.624 5.82c.648-.72.972-1.596.972-2.628s-.324-1.908-.972-2.628c-.64-.72-1.488-1.08-2.544-1.08s-1.908.36-2.556 1.08c-.64.72-.96 1.596-.96 2.628s.32 1.908.96 2.628c.648.712 1.5 1.068 2.556 1.068s1.904-.356 2.544-1.068zm3.383-6.876l2.76 7.38h.024l2.76-7.38h.924L98.536 27h-.912l-3.24-8.496h.936zM5.928 34.32l-.684.552c-.4-.568-.984-.852-1.752-.852-.472 0-.892.14-1.26.42-.368.28-.552.672-.552 1.176 0 .208.036.396.108.564.08.168.164.3.252.396.088.096.232.196.432.3.208.104.368.176.48.216l.576.192c.272.088.448.148.528.18.088.024.248.084.48.18.24.096.404.18.492.252.096.064.224.164.384.3.168.136.284.272.348.408.072.136.136.304.192.504.064.2.096.42.096.66 0 .792-.276 1.4-.828 1.824-.552.416-1.2.624-1.944.624a3.672 3.672 0 0 1-1.524-.324A2.873 2.873 0 0 1 .6 40.956l.744-.552c.2.32.468.58.804.78.336.192.716.288 1.14.288.488 0 .924-.144 1.308-.432.384-.296.576-.7.576-1.212 0-.232-.044-.436-.132-.612a1.564 1.564 0 0 0-.276-.444c-.104-.112-.268-.22-.492-.324a3.932 3.932 0 0 0-.54-.24 17.286 17.286 0 0 0-.636-.204 7.63 7.63 0 0 1-.852-.312 4.128 4.128 0 0 1-.696-.42c-.24-.176-.424-.4-.552-.672a2.45 2.45 0 0 1-.18-.972c0-.52.14-.96.42-1.32a2.383 2.383 0 0 1 1.02-.78c.4-.16.824-.24 1.272-.24.536 0 1.016.1 1.44.3.424.192.744.436.96.732zm4.487-.048V42H9.55v-7.728H6.705v-.768h6.552v.768h-2.843zM18.962 42a3.608 3.608 0 0 1-1.296.216c-.488 0-.924-.072-1.308-.216a2.814 2.814 0 0 1-.912-.564 2.825 2.825 0 0 1-.576-.804 3.96 3.96 0 0 1-.3-.9 4.83 4.83 0 0 1-.084-.9v-5.328h.864v5.232c0 .768.184 1.412.552 1.932.376.52.964.78 1.764.78s1.384-.26 1.752-.78c.376-.52.564-1.164.564-1.932v-5.232h.864v5.328c0 .304-.028.604-.084.9a3.66 3.66 0 0 1-.312.9c-.144.312-.332.58-.564.804-.232.224-.54.412-.924.564zm4.092 0v-8.496h2.82c.544 0 1.076.092 1.596.276.52.176.996.436 1.428.78.432.336.78.784 1.044 1.344.264.552.396 1.168.396 1.848 0 .68-.132 1.3-.396 1.86-.264.552-.612 1-1.044 1.344a5.06 5.06 0 0 1-1.428.78 4.946 4.946 0 0 1-1.596.264h-2.82zm.864-7.728v6.96h1.716c.616 0 1.168-.096 1.656-.288.496-.2.896-.464 1.2-.792.304-.336.536-.708.696-1.116.16-.408.24-.836.24-1.284a3.486 3.486 0 0 0-.936-2.388c-.304-.336-.704-.6-1.2-.792-.488-.2-1.04-.3-1.656-.3h-1.716zM33 33.504V42h-.864v-8.496H33zm9.393 1.056c.84.84 1.26 1.904 1.26 3.192 0 1.288-.42 2.356-1.26 3.204-.84.84-1.896 1.26-3.168 1.26-1.272 0-2.328-.42-3.168-1.26-.84-.848-1.26-1.916-1.26-3.204 0-1.288.42-2.352 1.26-3.192.84-.848 1.896-1.272 3.168-1.272 1.272 0 2.328.424 3.168 1.272zm-.624 5.82c.648-.72.972-1.596.972-2.628s-.324-1.908-.972-2.628c-.64-.72-1.488-1.08-2.544-1.08s-1.908.36-2.556 1.08c-.64.72-.96 1.596-.96 2.628s.32 1.908.96 2.628c.648.712 1.5 1.068 2.556 1.068s1.904-.356 2.544-1.068z" fill="#131313"/></svg>