<svg width="102" height="42" viewBox="0 0 102 42" fill="none" xmlns="http://www.w3.org/2000/svg"><path d="M12.528 12.236c-1.212 1.404-2.862 2.106-4.95 2.106-1.98 0-3.618-.624-4.914-1.872C1.368 11.21.72 9.59.72 7.61c0-2.004.654-3.618 1.962-4.842C4.002 1.532 5.652.914 7.632.914c.924 0 1.818.168 2.682.504.876.324 1.572.78 2.088 1.368l-2.088 2.088a2.515 2.515 0 0 0-1.116-.864 3.53 3.53 0 0 0-1.458-.306c-1.068 0-1.95.372-2.646 1.116-.684.732-1.026 1.662-1.026 2.79 0 1.152.336 2.094 1.008 2.826.672.72 1.542 1.08 2.61 1.08 1.188 0 2.088-.432 2.7-1.296l2.142 2.016zM21.875 14h-8.028V1.256h3.096v10.062h4.932V14zm14.186-6.426c0 2.004-.654 3.636-1.962 4.896-1.308 1.248-2.97 1.872-4.986 1.872-2.004 0-3.66-.624-4.968-1.872-1.308-1.26-1.962-2.892-1.962-4.896 0-2.016.648-3.63 1.944-4.842C25.435 1.52 27.097.914 29.113.914c2.028 0 3.69.606 4.986 1.818 1.308 1.212 1.962 2.826 1.962 4.842zm-3.294 0c0-1.128-.342-2.058-1.026-2.79-.684-.732-1.56-1.098-2.628-1.098s-1.944.366-2.628 1.098c-.672.732-1.008 1.662-1.008 2.79 0 1.152.336 2.1 1.008 2.844.684.744 1.56 1.116 2.628 1.116s1.944-.372 2.628-1.116c.684-.744 1.026-1.692 1.026-2.844zm16.341-6.318L44.195 14h-3.078L36.291 1.256h3.456l2.953 9.036h.072l2.933-9.036h3.402zM59.038 14h-8.892V1.256h8.568v2.61h-5.598V6.26h5.292v2.466h-5.292v2.646h5.922V14zm12.464 0h-3.6l-2.754-5.058h-1.044V14H61.08V1.256h4.86c.648 0 1.248.066 1.8.198a5.457 5.457 0 0 1 1.548.63c.48.288.852.69 1.116 1.206.276.516.414 1.122.414 1.818 0 .84-.234 1.56-.702 2.16-.468.6-1.116 1.026-1.944 1.278L71.502 14zm-3.726-8.838c0-.948-.684-1.422-2.052-1.422h-1.638v2.97h1.458c1.488 0 2.232-.516 2.232-1.548zM2.024 20.212l4.532 6.633h.022v-6.633h.792V28h-.99l-4.532-6.699h-.022V28h-.792v-7.788h.99zm8.202 0V28h-.792v-7.788h.792zm2.858 0v3.498h.01l3.708-3.498h1.133l-3.927 3.531L18.155 28h-1.166l-3.894-4.147h-.011V28h-.792v-7.788h.792zM19.199 28v-7.788h.792v3.377h4.246v-3.377h.792V28h-.792v-3.685h-4.246V28h-.792zm14.44-6.82c.77.77 1.155 1.745 1.155 2.926 0 1.18-.384 2.16-1.154 2.937-.77.77-1.739 1.155-2.905 1.155-1.165 0-2.133-.385-2.904-1.155-.77-.777-1.154-1.756-1.154-2.937 0-1.18.384-2.156 1.154-2.926.77-.777 1.739-1.166 2.904-1.166 1.166 0 2.135.389 2.904 1.166zm-.572 5.335c.594-.66.892-1.463.892-2.409 0-.946-.298-1.749-.892-2.409-.586-.66-1.364-.99-2.332-.99-.968 0-1.748.33-2.343.99-.586.66-.88 1.463-.88 2.409 0 .946.294 1.749.88 2.409.595.653 1.375.979 2.343.979s1.746-.326 2.333-.979zm4.165-6.303v7.084h3.63V28H36.44v-7.788h.792zm5.608 5.742L41.993 28h-.87l3.367-7.788h.77L48.604 28h-.88l-.858-2.046H42.84zm2.013-4.862l-1.716 4.136h3.432l-1.716-4.136zm8.245-.88v3.498h.011l3.707-3.498h1.133l-3.926 3.531L58.169 28h-1.165l-3.895-4.147h-.01V28h-.792v-7.788h.791zM59.215 28v-7.788h.792v3.377h4.246v-3.377h.792V28h-.792v-3.685h-4.246V28h-.792zm8.687-7.788v7.084h3.63V28H67.11v-7.788h.792zM76.507 28c-.345.132-.74.198-1.188.198-.447 0-.847-.066-1.199-.198a2.579 2.579 0 0 1-.836-.517 2.588 2.588 0 0 1-.528-.737 3.63 3.63 0 0 1-.275-.825 4.422 4.422 0 0 1-.077-.825v-4.884h.792v4.796c0 .704.169 1.294.506 1.771.345.477.884.715 1.617.715s1.269-.238 1.606-.715c.345-.477.517-1.067.517-1.771v-4.796h.792v4.884c0 .279-.026.554-.077.825a3.359 3.359 0 0 1-.286.825 2.425 2.425 0 0 1-.517.737 2.56 2.56 0 0 1-.847.517zm8.15-7.04l-.626.506c-.367-.52-.902-.781-1.606-.781-.433 0-.818.128-1.155.385-.338.257-.506.616-.506 1.078 0 .19.033.363.099.517.073.154.15.275.23.363.081.088.213.18.397.275.19.095.337.161.44.198l.528.176c.249.08.41.136.484.165.08.022.227.077.44.165.22.088.37.165.45.231.089.059.206.15.353.275.154.125.26.25.319.374.066.125.124.279.176.462.058.183.088.385.088.605 0 .726-.253 1.283-.76 1.672-.505.381-1.1.572-1.781.572-.492 0-.957-.099-1.397-.297a2.635 2.635 0 0 1-1.056-.858l.682-.506c.183.293.429.532.737.715.308.176.656.264 1.045.264.447 0 .847-.132 1.199-.396.352-.271.528-.642.528-1.111 0-.213-.04-.4-.121-.561a1.431 1.431 0 0 0-.253-.407 1.448 1.448 0 0 0-.451-.297 3.6 3.6 0 0 0-.495-.22 15.868 15.868 0 0 0-.583-.187 6.997 6.997 0 0 1-.781-.286 3.785 3.785 0 0 1-.638-.385 1.593 1.593 0 0 1-.506-.616 2.246 2.246 0 0 1-.165-.891c0-.477.128-.88.385-1.21a2.18 2.18 0 0 1 .935-.715 3.11 3.11 0 0 1 1.166-.22c.491 0 .931.092 1.32.275.388.176.682.4.88.671zm8.355.22c.77.77 1.155 1.745 1.155 2.926 0 1.18-.385 2.16-1.155 2.937-.77.77-1.738 1.155-2.904 1.155s-2.134-.385-2.904-1.155c-.77-.777-1.155-1.756-1.155-2.937 0-1.18.385-2.156 1.155-2.926.77-.777 1.738-1.166 2.904-1.166s2.134.389 2.904 1.166zm-.572 5.335c.594-.66.89-1.463.89-2.409 0-.946-.296-1.749-.89-2.409-.587-.66-1.364-.99-2.332-.99-.968 0-1.75.33-2.343.99-.587.66-.88 1.463-.88 2.409 0 .946.293 1.749.88 2.409.594.653 1.375.979 2.343.979s1.745-.326 2.332-.979zm3.1-6.303l2.53 6.765h.022l2.53-6.765h.847L98.489 28h-.837l-2.97-7.788h.858zM5.434 33.96l-.627.506c-.367-.52-.902-.781-1.606-.781-.433 0-.818.128-1.155.385-.337.257-.506.616-.506 1.078 0 .19.033.363.099.517.073.154.15.275.231.363.08.088.213.18.396.275.19.095.337.161.44.198l.528.176c.25.08.41.136.484.165.08.022.227.077.44.165.22.088.37.165.451.231a4.1 4.1 0 0 1 .352.275c.154.125.26.25.319.374.066.125.125.279.176.462.059.183.088.385.088.605 0 .726-.253 1.283-.759 1.672-.506.381-1.1.572-1.782.572-.491 0-.957-.099-1.397-.297a2.634 2.634 0 0 1-1.056-.858l.682-.506c.183.293.429.532.737.715.308.176.656.264 1.045.264.447 0 .847-.132 1.199-.396.352-.271.528-.642.528-1.111 0-.213-.04-.4-.121-.561a1.433 1.433 0 0 0-.253-.407 1.449 1.449 0 0 0-.451-.297 3.6 3.6 0 0 0-.495-.22 15.913 15.913 0 0 0-.583-.187 6.995 6.995 0 0 1-.781-.286 3.784 3.784 0 0 1-.638-.385 1.592 1.592 0 0 1-.506-.616 2.246 2.246 0 0 1-.165-.891c0-.477.128-.88.385-1.21.264-.337.576-.576.935-.715a3.11 3.11 0 0 1 1.166-.22c.491 0 .931.092 1.32.275.389.176.682.4.88.671zm4.113-.044V41h-.792v-7.084H6.148v-.704h6.006v.704H9.547zM17.382 41c-.345.132-.74.198-1.188.198-.447 0-.847-.066-1.199-.198a2.579 2.579 0 0 1-.836-.517 2.588 2.588 0 0 1-.528-.737 3.63 3.63 0 0 1-.275-.825 4.422 4.422 0 0 1-.077-.825v-4.884h.792v4.796c0 .704.169 1.294.506 1.771.345.477.884.715 1.617.715s1.269-.238 1.606-.715c.345-.477.517-1.067.517-1.771v-4.796h.792v4.884c0 .279-.026.554-.077.825a3.359 3.359 0 0 1-.286.825 2.425 2.425 0 0 1-.517.737 2.56 2.56 0 0 1-.847.517zm3.75 0v-7.788h2.586c.498 0 .986.084 1.463.253.476.161.913.4 1.309.715.396.308.715.719.957 1.232.242.506.363 1.07.363 1.694 0 .623-.121 1.192-.363 1.705a3.442 3.442 0 0 1-.957 1.232 4.638 4.638 0 0 1-1.31.715 4.534 4.534 0 0 1-1.462.242h-2.585zm.793-7.084v6.38h1.573c.564 0 1.07-.088 1.518-.264.454-.183.821-.425 1.1-.726.278-.308.491-.649.638-1.023.146-.374.22-.766.22-1.177a3.194 3.194 0 0 0-.858-2.189c-.279-.308-.646-.55-1.1-.726a3.973 3.973 0 0 0-1.518-.275h-1.573zm8.325-.704V41h-.792v-7.788h.792zm8.61.968c.77.77 1.155 1.745 1.155 2.926 0 1.18-.385 2.16-1.155 2.937-.77.77-1.738 1.155-2.904 1.155s-2.134-.385-2.904-1.155c-.77-.777-1.155-1.756-1.155-2.937 0-1.18.385-2.156 1.155-2.926.77-.777 1.738-1.166 2.904-1.166s2.134.389 2.904 1.166zm-.572 5.335c.594-.66.891-1.463.891-2.409 0-.946-.297-1.749-.89-2.409-.587-.66-1.365-.99-2.333-.99-.968 0-1.749.33-2.343.99-.586.66-.88 1.463-.88 2.409 0 .946.294 1.749.88 2.409.594.653 1.375.979 2.343.979s1.746-.326 2.332-.979z" fill="#fff"/></svg>