<svg width="16" height="16" viewBox="0 0 16 16" fill="none" xmlns="http://www.w3.org/2000/svg">
<g opacity="0.3">
<path fill-rule="evenodd" clip-rule="evenodd" d="M8 0C3.58172 0 0 3.58172 0 8C0 12.4183 3.58172 16 8 16C12.4183 16 16 12.4183 16 8C16 3.58172 12.4183 0 8 0ZM11.4458 6.22334H9.18604V5.57592H11.4458V6.22334ZM11.2467 6.76679C10.9748 6.64652 10.6692 6.58613 10.3296 6.58613C9.75811 6.58613 9.29401 6.76481 8.93528 7.11971C8.57755 7.47559 8.39843 7.9869 8.39843 8.65363C8.39843 9.36441 8.59611 9.87819 8.99398 10.1935C9.38984 10.5093 9.84792 10.6667 10.3672 10.6667C10.9959 10.6667 11.4851 10.4796 11.8343 10.1059C12.058 9.87027 12.1845 9.63813 12.2121 9.41044H11.171C11.1108 9.5233 11.0405 9.6114 10.9607 9.67525C10.8158 9.79256 10.6266 9.85146 10.3953 9.85146C10.1755 9.85146 9.9884 9.80296 9.83287 9.70644C9.57598 9.55151 9.44152 9.28076 9.42446 8.89518H12.2657C12.2703 8.56305 12.2592 8.30764 12.2316 8.13143C12.1845 7.83 12.0811 7.56469 11.92 7.33601C11.7434 7.07665 11.5192 6.88658 11.2467 6.76679ZM6.28163 5.33333C6.92484 5.34274 7.37991 5.52736 7.64833 5.8877C7.80939 6.10896 7.89016 6.37327 7.89016 6.68164C7.89016 6.99892 7.80939 7.25482 7.64633 7.44786C7.55501 7.55576 7.42105 7.65476 7.24394 7.74385C7.51287 7.84087 7.71556 7.99381 7.85354 8.20319C7.99001 8.41207 8.05874 8.66648 8.05874 8.96545C8.05874 9.27381 7.98047 9.5505 7.82343 9.79502C7.72409 9.95688 7.59967 10.0935 7.45015 10.2044C7.28207 10.3316 7.08389 10.4182 6.8546 10.4657C6.62531 10.5127 6.37746 10.5355 6.10954 10.5355H3.73337V5.33333H6.28163Z" fill="black"/>
<path fill-rule="evenodd" clip-rule="evenodd" d="M4.78455 6.23657H5.9325C6.18486 6.23657 6.39258 6.2638 6.55614 6.31775C6.74479 6.39595 6.83911 6.55583 6.83911 6.79886C6.83911 7.01665 6.76737 7.1691 6.62488 7.25523C6.48138 7.34135 6.29524 7.38441 6.06696 7.38441H4.78455V6.23657ZM9.72155 7.63585C9.86555 7.48934 10.0692 7.41608 10.3301 7.41608C10.571 7.41608 10.7722 7.48488 10.9357 7.62298C11.0973 7.76207 11.1886 7.96402 11.2072 8.23131H9.44961C9.48674 7.98085 9.57755 7.78236 9.72155 7.63585ZM6.08301 8.24512H4.78455V9.63253H6.06495C6.29374 9.63253 6.47235 9.60184 6.59929 9.54096C6.83059 9.42712 6.94598 9.21131 6.94598 8.89156C6.94598 8.62031 6.8346 8.4347 6.61033 8.33323C6.4849 8.2768 6.30879 8.2471 6.08301 8.24512Z" fill="black"/>
</g>
</svg>
