<svg width="16" height="16" viewBox="0 0 16 16" fill="none" xmlns="http://www.w3.org/2000/svg">
<g opacity="0.3">
<path fill-rule="evenodd" clip-rule="evenodd" d="M8 0C3.58172 0 0 3.58172 0 8C0 12.4183 3.58172 16 8 16C12.4183 16 16 12.4183 16 8C16 3.58172 12.4183 0 8 0ZM6.24113 3.75898C6.69624 3.73827 6.84167 3.7332 8.00043 3.7332H7.9991C9.15822 3.7332 9.30311 3.73827 9.75823 3.75898C10.2125 3.77978 10.5227 3.85169 10.7947 3.95721C11.0756 4.0661 11.3129 4.21187 11.5502 4.44921C11.7876 4.68637 11.9334 4.92442 12.0427 5.20504C12.1476 5.47633 12.2196 5.78638 12.2409 6.24061C12.2614 6.69572 12.2667 6.84115 12.2667 7.99991C12.2667 9.15868 12.2614 9.30375 12.2409 9.75886C12.2196 10.2129 12.1476 10.5231 12.0427 10.7944C11.9334 11.075 11.7876 11.313 11.5502 11.5502C11.3132 11.7875 11.0755 11.9336 10.795 12.0426C10.5235 12.1481 10.2131 12.22 9.75885 12.2408C9.30374 12.2616 9.15876 12.2666 7.9999 12.2666C6.84122 12.2666 6.69589 12.2616 6.24077 12.2408C5.78663 12.22 5.4765 12.1481 5.20503 12.0426C4.92458 11.9336 4.68653 11.7875 4.44946 11.5502C4.21222 11.313 4.06644 11.075 3.95737 10.7943C3.85194 10.5231 3.78003 10.213 3.75914 9.75878C3.73852 9.30366 3.73337 9.15868 3.73337 7.99991C3.73337 6.84115 3.7387 6.69563 3.75905 6.24052C3.7795 5.78647 3.8515 5.47633 3.95728 5.20495C4.06661 4.92442 4.21239 4.68637 4.44973 4.44921C4.68689 4.21196 4.92493 4.06618 5.20556 3.95721C5.47685 3.85169 5.7869 3.77978 6.24113 3.75898Z" fill="black"/>
<path fill-rule="evenodd" clip-rule="evenodd" d="M7.61762 4.50229C7.69194 4.50217 7.77189 4.50221 7.85817 4.50225L8.00038 4.50229C9.13959 4.50229 9.27461 4.50638 9.72448 4.52682C10.1405 4.54584 10.3663 4.61536 10.5167 4.67376C10.7158 4.75109 10.8577 4.84354 11.007 4.99287C11.1563 5.14221 11.2488 5.28443 11.3263 5.48354C11.3847 5.63377 11.4543 5.85955 11.4732 6.27555C11.4937 6.72533 11.4981 6.86045 11.4981 7.99912C11.4981 9.1378 11.4937 9.27291 11.4732 9.7227C11.4542 10.1387 11.3847 10.3645 11.3263 10.5147C11.2489 10.7138 11.1563 10.8556 11.007 11.0048C10.8577 11.1542 10.7159 11.2466 10.5167 11.324C10.3664 11.3826 10.1405 11.452 9.72448 11.471C9.2747 11.4914 9.13959 11.4959 8.00038 11.4959C6.86108 11.4959 6.72605 11.4914 6.27627 11.471C5.86027 11.4518 5.63449 11.3823 5.484 11.3239C5.28488 11.2465 5.14266 11.1541 4.99332 11.0048C4.84399 10.8554 4.75154 10.7136 4.67403 10.5143C4.61563 10.3641 4.54603 10.1383 4.5271 9.72234C4.50665 9.27256 4.50256 9.13745 4.50256 7.99806C4.50256 6.85867 4.50665 6.72427 4.5271 6.27448C4.54612 5.85848 4.61563 5.6327 4.67403 5.4823C4.75137 5.28318 4.84399 5.14096 4.99332 4.99163C5.14266 4.84229 5.28488 4.74985 5.484 4.67233C5.6344 4.61367 5.86027 4.54433 6.27627 4.52522C6.66987 4.50744 6.82241 4.50211 7.61762 4.50122V4.50229ZM10.2779 5.2108C9.99524 5.2108 9.7659 5.43987 9.7659 5.72263C9.7659 6.0053 9.99524 6.23463 10.2779 6.23463C10.5606 6.23463 10.7899 6.0053 10.7899 5.72263C10.7899 5.43996 10.5606 5.21062 10.2779 5.21062V5.2108ZM5.80932 8.00004C5.80932 6.79001 6.79035 5.80895 8.00037 5.8089C9.21043 5.8089 10.1912 6.78998 10.1912 8.00004C10.1912 9.21009 9.21051 10.1907 8.00046 10.1907C6.7904 10.1907 5.80932 9.21009 5.80932 8.00004Z" fill="black"/>
<path d="M8.00048 6.57788C8.78592 6.57788 9.42272 7.2146 9.42272 8.00012C9.42272 8.78555 8.78592 9.42236 8.00048 9.42236C7.21497 9.42236 6.57825 8.78555 6.57825 8.00012C6.57825 7.2146 7.21497 6.57788 8.00048 6.57788Z" fill="black"/>
</g>
</svg>
