<svg width="102" height="42" viewBox="0 0 102 42" fill="none" xmlns="http://www.w3.org/2000/svg">
<path d="M12.528 12.236C11.316 13.64 9.666 14.342 7.578 14.342C5.598 14.342 3.96 13.718 2.664 12.47C1.368 11.21 0.72 9.59 0.72 7.61C0.72 5.606 1.374 3.992 2.682 2.768C4.002 1.532 5.652 0.913999 7.632 0.913999C8.556 0.913999 9.45 1.082 10.314 1.418C11.19 1.742 11.886 2.198 12.402 2.786L10.314 4.874C10.038 4.49 9.666 4.202 9.198 4.01C8.742 3.806 8.256 3.704 7.74 3.704C6.672 3.704 5.79 4.076 5.094 4.82C4.41 5.552 4.068 6.482 4.068 7.61C4.068 8.762 4.404 9.704 5.076 10.436C5.748 11.156 6.618 11.516 7.686 11.516C8.874 11.516 9.774 11.084 10.386 10.22L12.528 12.236ZM21.8752 14H13.8472V1.256H16.9432V11.318H21.8752V14ZM36.0609 7.574C36.0609 9.578 35.4069 11.21 34.0989 12.47C32.7909 13.718 31.1289 14.342 29.1129 14.342C27.1089 14.342 25.4529 13.718 24.1449 12.47C22.8369 11.21 22.1829 9.578 22.1829 7.574C22.1829 5.558 22.8309 3.944 24.1269 2.732C25.4349 1.52 27.0969 0.913999 29.1129 0.913999C31.1409 0.913999 32.8029 1.52 34.0989 2.732C35.4069 3.944 36.0609 5.558 36.0609 7.574ZM32.7669 7.574C32.7669 6.446 32.4249 5.516 31.7409 4.784C31.0569 4.052 30.1809 3.686 29.1129 3.686C28.0449 3.686 27.1689 4.052 26.4849 4.784C25.8129 5.516 25.4769 6.446 25.4769 7.574C25.4769 8.726 25.8129 9.674 26.4849 10.418C27.1689 11.162 28.0449 11.534 29.1129 11.534C30.1809 11.534 31.0569 11.162 31.7409 10.418C32.4249 9.674 32.7669 8.726 32.7669 7.574ZM49.1085 1.256L44.1945 14H41.1165L36.2925 1.256H39.7485L42.7005 10.292H42.7725L45.7065 1.256H49.1085ZM59.038 14H50.146V1.256H58.714V3.866H53.116V6.26H58.408V8.726H53.116V11.372H59.038V14ZM71.5016 14H67.9016L65.1476 8.942H64.1036V14H61.0796V1.256H65.9396C66.5876 1.256 67.1876 1.322 67.7396 1.454C68.2916 1.586 68.8076 1.796 69.2876 2.084C69.7676 2.372 70.1396 2.774 70.4036 3.29C70.6796 3.806 70.8176 4.412 70.8176 5.108C70.8176 5.948 70.5836 6.668 70.1156 7.268C69.6476 7.868 68.9996 8.294 68.1716 8.546L71.5016 14ZM67.7756 5.162C67.7756 4.214 67.0916 3.74 65.7236 3.74H64.0856V6.71H65.5436C67.0316 6.71 67.7756 6.194 67.7756 5.162ZM2.024 20.212L6.556 26.845H6.578V20.212H7.37V28H6.38L1.848 21.301H1.826V28H1.034V20.212H2.024ZM10.2264 20.212V28H9.43439V20.212H10.2264ZM13.0838 20.212V23.71H13.0948L16.8018 20.212H17.9348L14.0078 23.743L18.1548 28H16.9888L13.0948 23.853H13.0838V28H12.2918V20.212H13.0838ZM19.199 28V20.212H19.991V23.589H24.237V20.212H25.029V28H24.237V24.315H19.991V28H19.199ZM33.6395 21.18C34.4095 21.95 34.7945 22.9253 34.7945 24.106C34.7945 25.2867 34.4095 26.2657 33.6395 27.043C32.8695 27.813 31.9015 28.198 30.7355 28.198C29.5695 28.198 28.6015 27.813 27.8315 27.043C27.0615 26.2657 26.6765 25.2867 26.6765 24.106C26.6765 22.9253 27.0615 21.95 27.8315 21.18C28.6015 20.4027 29.5695 20.014 30.7355 20.014C31.9015 20.014 32.8695 20.4027 33.6395 21.18ZM33.0675 26.515C33.6615 25.855 33.9585 25.052 33.9585 24.106C33.9585 23.16 33.6615 22.357 33.0675 21.697C32.4809 21.037 31.7035 20.707 30.7355 20.707C29.7675 20.707 28.9865 21.037 28.3925 21.697C27.8059 22.357 27.5125 23.16 27.5125 24.106C27.5125 25.052 27.8059 25.855 28.3925 26.515C28.9865 27.1677 29.7675 27.494 30.7355 27.494C31.7035 27.494 32.4809 27.1677 33.0675 26.515ZM37.2323 20.212V27.296H40.8623V28H36.4403V20.212H37.2323ZM42.8397 25.954L41.9927 28H41.1237L44.4897 20.212H45.2597L48.6037 28H47.7237L46.8657 25.954H42.8397ZM44.8527 21.092L43.1367 25.228H46.5687L44.8527 21.092ZM53.0985 20.212V23.71H53.1095L56.8165 20.212H57.9495L54.0225 23.743L58.1695 28H57.0035L53.1095 23.853H53.0985V28H52.3065V20.212H53.0985ZM59.2137 28V20.212H60.0057V23.589H64.2517V20.212H65.0437V28H64.2517V24.315H60.0057V28H59.2137ZM67.9012 20.212V27.296H71.5312V28H67.1092V20.212H67.9012ZM76.5071 28C76.1624 28.132 75.7664 28.198 75.3191 28.198C74.8717 28.198 74.4721 28.132 74.1201 28C73.7754 27.8607 73.4967 27.6883 73.2841 27.483C73.0714 27.2777 72.8954 27.032 72.7561 26.746C72.6241 26.46 72.5324 26.185 72.4811 25.921C72.4297 25.6497 72.4041 25.3747 72.4041 25.096V20.212H73.1961V25.008C73.1961 25.712 73.3647 26.3023 73.7021 26.779C74.0467 27.2557 74.5857 27.494 75.3191 27.494C76.0524 27.494 76.5877 27.2557 76.9251 26.779C77.2697 26.3023 77.4421 25.712 77.4421 25.008V20.212H78.2341V25.096C78.2341 25.3747 78.2084 25.6497 78.1571 25.921C78.1057 26.185 78.0104 26.46 77.8711 26.746C77.7391 27.032 77.5667 27.2777 77.3541 27.483C77.1414 27.6883 76.8591 27.8607 76.5071 28ZM84.6576 20.96L84.0306 21.466C83.664 20.9453 83.1286 20.685 82.4246 20.685C81.992 20.685 81.607 20.8133 81.2696 21.07C80.9323 21.3267 80.7636 21.686 80.7636 22.148C80.7636 22.3387 80.7966 22.511 80.8626 22.665C80.936 22.819 81.013 22.94 81.0936 23.028C81.1743 23.116 81.3063 23.2077 81.4896 23.303C81.6803 23.3983 81.827 23.4643 81.9296 23.501C82.0396 23.5377 82.2156 23.5963 82.4576 23.677C82.707 23.7577 82.8683 23.8127 82.9416 23.842C83.0223 23.864 83.169 23.919 83.3816 24.007C83.6016 24.095 83.752 24.172 83.8326 24.238C83.9206 24.2967 84.038 24.3883 84.1846 24.513C84.3386 24.6377 84.445 24.7623 84.5036 24.887C84.5696 25.0117 84.6283 25.1657 84.6796 25.349C84.7383 25.5323 84.7676 25.734 84.7676 25.954C84.7676 26.68 84.5146 27.2373 84.0086 27.626C83.5026 28.0073 82.9086 28.198 82.2266 28.198C81.7353 28.198 81.2696 28.099 80.8296 27.901C80.397 27.703 80.045 27.417 79.7736 27.043L80.4556 26.537C80.639 26.8303 80.8846 27.0687 81.1926 27.252C81.5006 27.428 81.849 27.516 82.2376 27.516C82.685 27.516 83.0846 27.384 83.4366 27.12C83.7886 26.8487 83.9646 26.4783 83.9646 26.009C83.9646 25.7963 83.9243 25.6093 83.8436 25.448C83.7703 25.2793 83.686 25.1437 83.5906 25.041C83.4953 24.9383 83.345 24.8393 83.1396 24.744C82.9416 24.6413 82.7766 24.568 82.6446 24.524C82.52 24.48 82.3256 24.4177 82.0616 24.337C81.7536 24.2417 81.4933 24.1463 81.2806 24.051C81.0753 23.9557 80.8626 23.8273 80.6426 23.666C80.4226 23.5047 80.254 23.2993 80.1366 23.05C80.0266 22.7933 79.9716 22.4963 79.9716 22.159C79.9716 21.6823 80.1 21.279 80.3566 20.949C80.6206 20.6117 80.9323 20.3733 81.2916 20.234C81.6583 20.0873 82.047 20.014 82.4576 20.014C82.949 20.014 83.389 20.1057 83.7776 20.289C84.1663 20.465 84.4596 20.6887 84.6576 20.96ZM93.0116 21.18C93.7816 21.95 94.1666 22.9253 94.1666 24.106C94.1666 25.2867 93.7816 26.2657 93.0116 27.043C92.2416 27.813 91.2736 28.198 90.1076 28.198C88.9416 28.198 87.9736 27.813 87.2036 27.043C86.4336 26.2657 86.0486 25.2867 86.0486 24.106C86.0486 22.9253 86.4336 21.95 87.2036 21.18C87.9736 20.4027 88.9416 20.014 90.1076 20.014C91.2736 20.014 92.2416 20.4027 93.0116 21.18ZM92.4396 26.515C93.0336 25.855 93.3306 25.052 93.3306 24.106C93.3306 23.16 93.0336 22.357 92.4396 21.697C91.853 21.037 91.0756 20.707 90.1076 20.707C89.1396 20.707 88.3586 21.037 87.7646 21.697C87.178 22.357 86.8846 23.16 86.8846 24.106C86.8846 25.052 87.178 25.855 87.7646 26.515C88.3586 27.1677 89.1396 27.494 90.1076 27.494C91.0756 27.494 91.853 27.1677 92.4396 26.515ZM95.5404 20.212L98.0704 26.977H98.0924L100.622 20.212H101.469L98.4884 28H97.6524L94.6824 20.212H95.5404ZM5.434 33.96L4.807 34.466C4.44033 33.9453 3.905 33.685 3.201 33.685C2.76833 33.685 2.38333 33.8133 2.046 34.07C1.70867 34.3267 1.54 34.686 1.54 35.148C1.54 35.3387 1.573 35.511 1.639 35.665C1.71233 35.819 1.78933 35.94 1.87 36.028C1.95067 36.116 2.08267 36.2077 2.266 36.303C2.45667 36.3983 2.60333 36.4643 2.706 36.501C2.816 36.5377 2.992 36.5963 3.234 36.677C3.48333 36.7577 3.64467 36.8127 3.718 36.842C3.79867 36.864 3.94533 36.919 4.158 37.007C4.378 37.095 4.52833 37.172 4.609 37.238C4.697 37.2967 4.81433 37.3883 4.961 37.513C5.115 37.6377 5.22133 37.7623 5.28 37.887C5.346 38.0117 5.40467 38.1657 5.456 38.349C5.51467 38.5323 5.544 38.734 5.544 38.954C5.544 39.68 5.291 40.2373 4.785 40.626C4.279 41.0073 3.685 41.198 3.003 41.198C2.51167 41.198 2.046 41.099 1.606 40.901C1.17333 40.703 0.821333 40.417 0.55 40.043L1.232 39.537C1.41533 39.8303 1.661 40.0687 1.969 40.252C2.277 40.428 2.62533 40.516 3.014 40.516C3.46133 40.516 3.861 40.384 4.213 40.12C4.565 39.8487 4.741 39.4783 4.741 39.009C4.741 38.7963 4.70067 38.6093 4.62 38.448C4.54667 38.2793 4.46233 38.1437 4.367 38.041C4.27167 37.9383 4.12133 37.8393 3.916 37.744C3.718 37.6413 3.553 37.568 3.421 37.524C3.29633 37.48 3.102 37.4177 2.838 37.337C2.53 37.2417 2.26967 37.1463 2.057 37.051C1.85167 36.9557 1.639 36.8273 1.419 36.666C1.199 36.5047 1.03033 36.2993 0.913 36.05C0.803 35.7933 0.748 35.4963 0.748 35.159C0.748 34.6823 0.876333 34.279 1.133 33.949C1.397 33.6117 1.70867 33.3733 2.068 33.234C2.43467 33.0873 2.82333 33.014 3.234 33.014C3.72533 33.014 4.16533 33.1057 4.554 33.289C4.94267 33.465 5.236 33.6887 5.434 33.96ZM9.54663 33.916V41H8.75463V33.916H6.14763V33.212H12.1536V33.916H9.54663ZM17.3821 41C17.0374 41.132 16.6414 41.198 16.1941 41.198C15.7467 41.198 15.3471 41.132 14.9951 41C14.6504 40.8607 14.3717 40.6883 14.1591 40.483C13.9464 40.2777 13.7704 40.032 13.6311 39.746C13.4991 39.46 13.4074 39.185 13.3561 38.921C13.3047 38.6497 13.2791 38.3747 13.2791 38.096V33.212H14.0711V38.008C14.0711 38.712 14.2397 39.3023 14.5771 39.779C14.9217 40.2557 15.4607 40.494 16.1941 40.494C16.9274 40.494 17.4627 40.2557 17.8001 39.779C18.1447 39.3023 18.3171 38.712 18.3171 38.008V33.212H19.1091V38.096C19.1091 38.3747 19.0834 38.6497 19.0321 38.921C18.9807 39.185 18.8854 39.46 18.7461 39.746C18.6141 40.032 18.4417 40.2777 18.2291 40.483C18.0164 40.6883 17.7341 40.8607 17.3821 41ZM21.1326 41V33.212H23.7176C24.2163 33.212 24.704 33.2963 25.1806 33.465C25.6573 33.6263 26.0936 33.8647 26.4896 34.18C26.8856 34.488 27.2046 34.8987 27.4466 35.412C27.6886 35.918 27.8096 36.4827 27.8096 37.106C27.8096 37.7293 27.6886 38.2977 27.4466 38.811C27.2046 39.317 26.8856 39.7277 26.4896 40.043C26.0936 40.351 25.6573 40.5893 25.1806 40.758C24.704 40.9193 24.2163 41 23.7176 41H21.1326ZM21.9246 33.916V40.296H23.4976C24.0623 40.296 24.5683 40.208 25.0156 40.032C25.4703 39.8487 25.837 39.6067 26.1156 39.306C26.3943 38.998 26.607 38.657 26.7536 38.283C26.9003 37.909 26.9736 37.5167 26.9736 37.106C26.9736 36.6953 26.9003 36.303 26.7536 35.929C26.607 35.555 26.3943 35.2177 26.1156 34.917C25.837 34.609 25.4703 34.367 25.0156 34.191C24.5683 34.0077 24.0623 33.916 23.4976 33.916H21.9246ZM30.2498 33.212V41H29.4578V33.212H30.2498ZM38.8603 34.18C39.6303 34.95 40.0153 35.9253 40.0153 37.106C40.0153 38.2867 39.6303 39.2657 38.8603 40.043C38.0903 40.813 37.1223 41.198 35.9563 41.198C34.7903 41.198 33.8223 40.813 33.0523 40.043C32.2823 39.2657 31.8973 38.2867 31.8973 37.106C31.8973 35.9253 32.2823 34.95 33.0523 34.18C33.8223 33.4027 34.7903 33.014 35.9563 33.014C37.1223 33.014 38.0903 33.4027 38.8603 34.18ZM38.2883 39.515C38.8823 38.855 39.1793 38.052 39.1793 37.106C39.1793 36.16 38.8823 35.357 38.2883 34.697C37.7016 34.037 36.9243 33.707 35.9563 33.707C34.9883 33.707 34.2073 34.037 33.6133 34.697C33.0266 35.357 32.7332 36.16 32.7332 37.106C32.7332 38.052 33.0266 38.855 33.6133 39.515C34.2073 40.1677 34.9883 40.494 35.9563 40.494C36.9243 40.494 37.7016 40.1677 38.2883 39.515Z" fill="white"/>
</svg>
