<svg width="102" height="43" viewBox="0 0 102 43" fill="none" xmlns="http://www.w3.org/2000/svg">
<path d="M11.136 10.432C10.0587 11.68 8.592 12.304 6.736 12.304C4.976 12.304 3.52 11.7493 2.368 10.64C1.216 9.52 0.64 8.08 0.64 6.32C0.64 4.53867 1.22133 3.104 2.384 2.016C3.55733 0.917333 5.024 0.367999 6.784 0.367999C7.60533 0.367999 8.4 0.517332 9.168 0.815999C9.94667 1.104 10.5653 1.50933 11.024 2.032L9.168 3.888C8.92267 3.54667 8.592 3.29067 8.176 3.12C7.77067 2.93867 7.33867 2.848 6.88 2.848C5.93067 2.848 5.14667 3.17867 4.528 3.84C3.92 4.49067 3.616 5.31733 3.616 6.32C3.616 7.344 3.91467 8.18133 4.512 8.832C5.10933 9.472 5.88267 9.792 6.832 9.792C7.888 9.792 8.688 9.408 9.232 8.64L11.136 10.432ZM19.4446 12H12.3086V0.672H15.0606V9.616H19.4446V12ZM32.0541 6.288C32.0541 8.06933 31.4728 9.52 30.3101 10.64C29.1475 11.7493 27.6701 12.304 25.8781 12.304C24.0968 12.304 22.6248 11.7493 21.4621 10.64C20.2995 9.52 19.7181 8.06933 19.7181 6.288C19.7181 4.496 20.2941 3.06133 21.4461 1.984C22.6088 0.906666 24.0861 0.367999 25.8781 0.367999C27.6808 0.367999 29.1581 0.906666 30.3101 1.984C31.4728 3.06133 32.0541 4.496 32.0541 6.288ZM29.1261 6.288C29.1261 5.28533 28.8221 4.45867 28.2141 3.808C27.6061 3.15733 26.8275 2.832 25.8781 2.832C24.9288 2.832 24.1501 3.15733 23.5421 3.808C22.9448 4.45867 22.6461 5.28533 22.6461 6.288C22.6461 7.312 22.9448 8.15467 23.5421 8.816C24.1501 9.47733 24.9288 9.808 25.8781 9.808C26.8275 9.808 27.6061 9.47733 28.2141 8.816C28.8221 8.15467 29.1261 7.312 29.1261 6.288ZM43.652 0.672L39.284 12H36.548L32.26 0.672H35.332L37.956 8.704H38.02L40.628 0.672H43.652ZM52.4783 12H44.5743V0.672H52.1903V2.992H47.2143V5.12H51.9183V7.312H47.2143V9.664H52.4783V12ZM63.557 12H60.357L57.909 7.504H56.981V12H54.293V0.672H58.613C59.189 0.672 59.7223 0.730666 60.213 0.848C60.7037 0.965333 61.1623 1.152 61.589 1.408C62.0157 1.664 62.3463 2.02133 62.581 2.48C62.8263 2.93867 62.949 3.47733 62.949 4.096C62.949 4.84267 62.741 5.48267 62.325 6.016C61.909 6.54933 61.333 6.928 60.597 7.152L63.557 12ZM60.245 4.144C60.245 3.30133 59.637 2.88 58.421 2.88H56.965V5.52H58.261C59.5837 5.52 60.245 5.06133 60.245 4.144ZM2.208 18.504L7.152 25.74H7.176V18.504H8.04V27H6.96L2.016 19.692H1.992V27H1.128V18.504H2.208ZM11.1561 18.504V27H10.2921V18.504H11.1561ZM14.2733 18.504V22.32H14.2853L18.3293 18.504H19.5653L15.2812 22.356L19.8053 27H18.5333L14.2853 22.476H14.2733V27H13.4093V18.504H14.2733ZM27.7914 19.56C28.6314 20.4 29.0514 21.464 29.0514 22.752C29.0514 24.04 28.6314 25.108 27.7914 25.956C26.9514 26.796 25.8954 27.216 24.6234 27.216C23.3514 27.216 22.2954 26.796 21.4554 25.956C20.6154 25.108 20.1954 24.04 20.1954 22.752C20.1954 21.464 20.6154 20.4 21.4554 19.56C22.2954 18.712 23.3514 18.288 24.6234 18.288C25.8954 18.288 26.9514 18.712 27.7914 19.56ZM27.1674 25.38C27.8154 24.66 28.1394 23.784 28.1394 22.752C28.1394 21.72 27.8154 20.844 27.1674 20.124C26.5274 19.404 25.6794 19.044 24.6234 19.044C23.5674 19.044 22.7154 19.404 22.0674 20.124C21.4274 20.844 21.1074 21.72 21.1074 22.752C21.1074 23.784 21.4274 24.66 22.0674 25.38C22.7154 26.092 23.5674 26.448 24.6234 26.448C25.6794 26.448 26.5274 26.092 27.1674 25.38ZM31.7108 18.504V26.232H35.6708V27H30.8468V18.504H31.7108ZM37.8279 24.768L36.9039 27H35.9559L39.6279 18.504H40.4679L44.1159 27H43.1559L42.2199 24.768H37.8279ZM40.0239 19.464L38.1519 23.976H41.8959L40.0239 19.464ZM49.0193 18.504V22.32H49.0313L53.0753 18.504H54.3113L50.0273 22.356L54.5513 27H53.2793L49.0313 22.476H49.0193V27H48.1553V18.504H49.0193ZM55.6905 27V18.504H56.5545V22.188H61.1865V18.504H62.0505V27H61.1865V22.98H56.5545V27H55.6905ZM65.1678 18.504V26.232H69.1278V27H64.3038V18.504H65.1678ZM74.556 27C74.18 27.144 73.748 27.216 73.26 27.216C72.772 27.216 72.336 27.144 71.952 27C71.576 26.848 71.272 26.66 71.04 26.436C70.808 26.212 70.616 25.944 70.464 25.632C70.32 25.32 70.22 25.02 70.164 24.732C70.108 24.436 70.08 24.136 70.08 23.832V18.504H70.944V23.736C70.944 24.504 71.128 25.148 71.496 25.668C71.872 26.188 72.46 26.448 73.26 26.448C74.06 26.448 74.644 26.188 75.012 25.668C75.388 25.148 75.576 24.504 75.576 23.736V18.504H76.44V23.832C76.44 24.136 76.412 24.436 76.356 24.732C76.3 25.02 76.196 25.32 76.044 25.632C75.9 25.944 75.712 26.212 75.48 26.436C75.248 26.66 74.94 26.848 74.556 27ZM83.4475 19.32L82.7635 19.872C82.3635 19.304 81.7795 19.02 81.0115 19.02C80.5395 19.02 80.1195 19.16 79.7515 19.44C79.3835 19.72 79.1995 20.112 79.1995 20.616C79.1995 20.824 79.2355 21.012 79.3075 21.18C79.3875 21.348 79.4715 21.48 79.5595 21.576C79.6475 21.672 79.7915 21.772 79.9915 21.876C80.1995 21.98 80.3595 22.052 80.4715 22.092C80.5915 22.132 80.7835 22.196 81.0475 22.284C81.3195 22.372 81.4955 22.432 81.5755 22.464C81.6635 22.488 81.8235 22.548 82.0555 22.644C82.2955 22.74 82.4595 22.824 82.5475 22.896C82.6435 22.96 82.7715 23.06 82.9315 23.196C83.0995 23.332 83.2155 23.468 83.2795 23.604C83.3515 23.74 83.4155 23.908 83.4715 24.108C83.5355 24.308 83.5675 24.528 83.5675 24.768C83.5675 25.56 83.2915 26.168 82.7395 26.592C82.1875 27.008 81.5395 27.216 80.7955 27.216C80.2595 27.216 79.7515 27.108 79.2715 26.892C78.7995 26.676 78.4155 26.364 78.1195 25.956L78.8635 25.404C79.0635 25.724 79.3315 25.984 79.6675 26.184C80.0035 26.376 80.3835 26.472 80.8075 26.472C81.2955 26.472 81.7315 26.328 82.1155 26.04C82.4995 25.744 82.6915 25.34 82.6915 24.828C82.6915 24.596 82.6475 24.392 82.5595 24.216C82.4795 24.032 82.3875 23.884 82.2835 23.772C82.1795 23.66 82.0155 23.552 81.7915 23.448C81.5755 23.336 81.3955 23.256 81.2515 23.208C81.1155 23.16 80.9035 23.092 80.6155 23.004C80.2795 22.9 79.9955 22.796 79.7635 22.692C79.5395 22.588 79.3075 22.448 79.0675 22.272C78.8275 22.096 78.6435 21.872 78.5155 21.6C78.3955 21.32 78.3355 20.996 78.3355 20.628C78.3355 20.108 78.4755 19.668 78.7555 19.308C79.0435 18.94 79.3835 18.68 79.7755 18.528C80.1755 18.368 80.5995 18.288 81.0475 18.288C81.5835 18.288 82.0635 18.388 82.4875 18.588C82.9115 18.78 83.2315 19.024 83.4475 19.32ZM92.561 19.56C93.401 20.4 93.821 21.464 93.821 22.752C93.821 24.04 93.401 25.108 92.561 25.956C91.721 26.796 90.665 27.216 89.393 27.216C88.121 27.216 87.065 26.796 86.225 25.956C85.385 25.108 84.965 24.04 84.965 22.752C84.965 21.464 85.385 20.4 86.225 19.56C87.065 18.712 88.121 18.288 89.393 18.288C90.665 18.288 91.721 18.712 92.561 19.56ZM91.937 25.38C92.585 24.66 92.909 23.784 92.909 22.752C92.909 21.72 92.585 20.844 91.937 20.124C91.297 19.404 90.449 19.044 89.393 19.044C88.337 19.044 87.485 19.404 86.837 20.124C86.197 20.844 85.877 21.72 85.877 22.752C85.877 23.784 86.197 24.66 86.837 25.38C87.485 26.092 88.337 26.448 89.393 26.448C90.449 26.448 91.297 26.092 91.937 25.38ZM95.3197 18.504L98.0797 25.884H98.1037L100.864 18.504H101.788L98.5357 27H97.6237L94.3837 18.504H95.3197ZM5.928 34.32L5.244 34.872C4.844 34.304 4.26 34.02 3.492 34.02C3.02 34.02 2.6 34.16 2.232 34.44C1.864 34.72 1.68 35.112 1.68 35.616C1.68 35.824 1.716 36.012 1.788 36.18C1.868 36.348 1.952 36.48 2.04 36.576C2.128 36.672 2.272 36.772 2.472 36.876C2.68 36.98 2.84 37.052 2.952 37.092C3.072 37.132 3.264 37.196 3.528 37.284C3.8 37.372 3.976 37.432 4.056 37.464C4.144 37.488 4.304 37.548 4.536 37.644C4.776 37.74 4.94 37.824 5.028 37.896C5.124 37.96 5.252 38.06 5.412 38.196C5.58 38.332 5.696 38.468 5.76 38.604C5.832 38.74 5.896 38.908 5.952 39.108C6.016 39.308 6.048 39.528 6.048 39.768C6.048 40.56 5.772 41.168 5.22 41.592C4.668 42.008 4.02 42.216 3.276 42.216C2.74 42.216 2.232 42.108 1.752 41.892C1.28 41.676 0.896 41.364 0.6 40.956L1.344 40.404C1.544 40.724 1.812 40.984 2.148 41.184C2.484 41.376 2.864 41.472 3.288 41.472C3.776 41.472 4.212 41.328 4.596 41.04C4.98 40.744 5.172 40.34 5.172 39.828C5.172 39.596 5.128 39.392 5.04 39.216C4.96 39.032 4.868 38.884 4.764 38.772C4.66 38.66 4.496 38.552 4.272 38.448C4.056 38.336 3.876 38.256 3.732 38.208C3.596 38.16 3.384 38.092 3.096 38.004C2.76 37.9 2.476 37.796 2.244 37.692C2.02 37.588 1.788 37.448 1.548 37.272C1.308 37.096 1.124 36.872 0.996 36.6C0.876 36.32 0.816 35.996 0.816 35.628C0.816 35.108 0.956 34.668 1.236 34.308C1.524 33.94 1.864 33.68 2.256 33.528C2.656 33.368 3.08 33.288 3.528 33.288C4.064 33.288 4.544 33.388 4.968 33.588C5.392 33.78 5.712 34.024 5.928 34.32ZM10.4145 34.272V42H9.5505V34.272H6.7065V33.504H13.2585V34.272H10.4145ZM18.9623 42C18.5863 42.144 18.1543 42.216 17.6663 42.216C17.1783 42.216 16.7423 42.144 16.3583 42C15.9823 41.848 15.6783 41.66 15.4463 41.436C15.2143 41.212 15.0223 40.944 14.8703 40.632C14.7263 40.32 14.6263 40.02 14.5703 39.732C14.5143 39.436 14.4863 39.136 14.4863 38.832V33.504H15.3503V38.736C15.3503 39.504 15.5343 40.148 15.9023 40.668C16.2783 41.188 16.8663 41.448 17.6663 41.448C18.4663 41.448 19.0503 41.188 19.4183 40.668C19.7943 40.148 19.9823 39.504 19.9823 38.736V33.504H20.8463V38.832C20.8463 39.136 20.8183 39.436 20.7623 39.732C20.7063 40.02 20.6023 40.32 20.4503 40.632C20.3063 40.944 20.1183 41.212 19.8863 41.436C19.6543 41.66 19.3463 41.848 18.9623 42ZM23.0538 42V33.504H25.8738C26.4178 33.504 26.9498 33.596 27.4698 33.78C27.9898 33.956 28.4658 34.216 28.8978 34.56C29.3298 34.896 29.6778 35.344 29.9418 35.904C30.2058 36.456 30.3378 37.072 30.3378 37.752C30.3378 38.432 30.2058 39.052 29.9418 39.612C29.6778 40.164 29.3298 40.612 28.8978 40.956C28.4658 41.292 27.9898 41.552 27.4698 41.736C26.9498 41.912 26.4178 42 25.8738 42H23.0538ZM23.9178 34.272V41.232H25.6338C26.2498 41.232 26.8018 41.136 27.2898 40.944C27.7858 40.744 28.1858 40.48 28.4898 40.152C28.7938 39.816 29.0258 39.444 29.1858 39.036C29.3458 38.628 29.4258 38.2 29.4258 37.752C29.4258 37.304 29.3458 36.876 29.1858 36.468C29.0258 36.06 28.7938 35.692 28.4898 35.364C28.1858 35.028 27.7858 34.764 27.2898 34.572C26.8018 34.372 26.2498 34.272 25.6338 34.272H23.9178ZM32.9998 33.504V42H32.1358V33.504H32.9998ZM42.393 34.56C43.233 35.4 43.653 36.464 43.653 37.752C43.653 39.04 43.233 40.108 42.393 40.956C41.553 41.796 40.497 42.216 39.225 42.216C37.953 42.216 36.897 41.796 36.057 40.956C35.217 40.108 34.797 39.04 34.797 37.752C34.797 36.464 35.217 35.4 36.057 34.56C36.897 33.712 37.953 33.288 39.225 33.288C40.497 33.288 41.553 33.712 42.393 34.56ZM41.769 40.38C42.417 39.66 42.741 38.784 42.741 37.752C42.741 36.72 42.417 35.844 41.769 35.124C41.129 34.404 40.281 34.044 39.225 34.044C38.169 34.044 37.317 34.404 36.669 35.124C36.029 35.844 35.709 36.72 35.709 37.752C35.709 38.784 36.029 39.66 36.669 40.38C37.317 41.092 38.169 41.448 39.225 41.448C40.281 41.448 41.129 41.092 41.769 40.38Z" fill="#131313"/>
</svg>
